<?xml version="1.0" encoding="UTF-8" standalone="no"?>
<svg
   version="1.1"
   id="svg35815"
   viewBox="0 0 1590.0001 1296.1005"
   height="365.78836mm"
   width="448.73337mm"
   sodipodi:docname="valknut.svg"
   inkscape:version="1.1.1 (3bf5ae0d25, 2021-09-20, custom)"
   xmlns:inkscape="http://www.inkscape.org/namespaces/inkscape"
   xmlns:sodipodi="http://sodipodi.sourceforge.net/DTD/sodipodi-0.dtd"
   xmlns="http://www.w3.org/2000/svg"
   xmlns:svg="http://www.w3.org/2000/svg"
   xmlns:rdf="http://www.w3.org/1999/02/22-rdf-syntax-ns#"
   xmlns:cc="http://creativecommons.org/ns#"
   xmlns:dc="http://purl.org/dc/elements/1.1/">
  <sodipodi:namedview
     id="namedview13"
     pagecolor="#505050"
     bordercolor="#eeeeee"
     borderopacity="1"
     inkscape:pageshadow="0"
     inkscape:pageopacity="0"
     inkscape:pagecheckerboard="0"
     inkscape:document-units="mm"
     showgrid="false"
     inkscape:zoom="0.49330666"
     inkscape:cx="848.35668"
     inkscape:cy="691.25359"
     inkscape:window-width="1916"
     inkscape:window-height="1053"
     inkscape:window-x="1920"
     inkscape:window-y="23"
     inkscape:window-maximized="1"
     inkscape:current-layer="svg35815" />
  <defs
     id="defs35817" />
  <metadata
     id="metadata35820">
    <rdf:RDF>
      <cc:Work
         rdf:about="">
        <dc:format>image/svg+xml</dc:format>
        <dc:type
           rdf:resource="http://purl.org/dc/dcmitype/StillImage" />
      </cc:Work>
    </rdf:RDF>
  </metadata>
  <g
     transform="translate(584.79363,327.97449)"
     id="layer1">
    <g
       transform="matrix(1.5264788,0,0,1.349238,307.8814,-338.10643)"
       id="g36386">
      <path
         style="fill:#000000;fill-opacity:1;fill-rule:evenodd;stroke:none;stroke-width:1px;stroke-linecap:butt;stroke-linejoin:miter;stroke-opacity:1"
         d="m -37.258318,229.43936 -59.937294,113.39488 -74.516638,-118.25466 -225.16983,393.64223 137.69378,0 -59.93729,105.29524 -264.04808,0 413.08135,-716.0076698 z"
         id="path36374" />
      <path
         style="fill:#000000;fill-opacity:1;fill-rule:evenodd;stroke:none;stroke-width:1px;stroke-linecap:butt;stroke-linejoin:miter;stroke-opacity:1"
         d="m -171.71225,252.11834 -199.251,349.9042 126.35429,-1.61993 76.13657,-132.834 77.756486,132.834 121.494514,1.61993 -197.63108,-343.4245 z"
         id="path36376" />
      <path
         style="fill:#000000;fill-opacity:1;fill-rule:evenodd;stroke:none;stroke-width:1px;stroke-linecap:butt;stroke-linejoin:miter;stroke-opacity:1"
         d="m 42.118098,130.62382 -131.214075,225.16984 61.55722,105.29524 71.276782,-116.63473 225.169835,392.0223 -132.834,3.23985 59.93729,108.5351 260.80822,-1.61993 z"
         id="path36378" />
      <path
         style="fill:#000000;fill-opacity:1;fill-rule:evenodd;stroke:none;stroke-width:1px;stroke-linecap:butt;stroke-linejoin:miter;stroke-opacity:1"
         d="m 43.738025,371.99292 -63.177147,106.91518 76.136562,137.69378 -158.75283,0 -56.69744,108.5351 400.12193,-3.23985 z"
         id="path36380" />
      <path
         style="fill:#000000;fill-opacity:1;fill-rule:evenodd;stroke:none;stroke-width:1px;stroke-linecap:butt;stroke-linejoin:miter;stroke-opacity:1"
         d="m -173.33217,499.96715 -191.15137,346.66434 396.882077,1.61993 -56.69744,-111.77495 -160.372757,3.23985 79.37641,-137.69378 z"
         id="path36382" />
      <path
         style="fill:#000000;fill-opacity:1;fill-rule:evenodd;stroke:none;stroke-width:1px;stroke-linecap:butt;stroke-linejoin:miter;stroke-opacity:1"
         d="M -453.57952,738.09639 -584.7936,968.12601 246.22888,966.50608 111.77495,738.09639 -9.7195612,741.33625 61.557221,864.45069 -392.0223,862.83076 -333.70493,739.71632 Z"
         id="path36384" />
    </g>
  </g>
  <path
     style="fill:#00aa00;stroke-width:2.02714"
     d="m 423.57922,1206.1904 -61.92,-1.0577 153.41362,-245.89383 C 599.45033,823.99725 668.95037,712.8811 669.51738,712.31411 c 0.88951,-0.88952 99.75539,128.90197 106.75214,140.14459 2.30276,3.70018 -3.58889,13.53007 -60.14182,100.34326 -34.48206,52.93274 -63.44445,97.51654 -64.36088,99.07534 -1.42113,2.4172 10.67804,2.6393 82.2583,1.5101 46.15849,-0.7281 104.98034,-1.898 130.71523,-2.5996 l 46.79073,-1.2758 44.9372,78.225 c 24.71548,43.0238 44.93722,78.7226 44.93722,79.3307 0,1.3474 -491.25546,0.6015 -577.82628,-0.8773 z"
     id="path70"
     transform="scale(0.9375)" />
  <path
     style="fill:#00aa00;stroke-width:2.02714"
     d="m 740.70279,955.59535 45.4315,-76.83162 129.86746,-1.01356 129.86745,-1.01357 -61.91789,-99.07483 -61.9179,-99.07482 50.64872,-76.00418 50.64877,-76.00417 5.106,7.84022 c 2.8084,4.31213 74.7942,116.94023 159.9686,250.28468 l 154.8625,242.4444 -190.6958,1.3252 c -104.8827,0.7289 -250.682,1.9167 -323.99839,2.6395 l -133.30253,1.3144 z"
     id="path109"
     transform="scale(0.9375)" />
  <path
     style="fill:#00aa00;stroke-width:2.02714"
     d="m 350.69428,854.14396 c 4.9e-4,-0.40178 320.60903,-498.17419 321.52659,-499.19773 0.40245,-0.44894 2.72279,1.71499 5.15635,4.80874 4.5,5.72083 322.00029,492.84891 322.00218,494.03515 0.002,1.12875 -181.11807,-0.32225 -188.18945,-1.50764 -6.36088,-1.0663 -10.40988,-6.6574 -68.62673,-94.76418 -34.02687,-51.49708 -62.56279,-94.37608 -63.41315,-95.28667 -0.85039,-0.91061 -29.2621,41.21051 -63.13716,93.60248 l -61.59104,95.25813 -8.10855,1.13828 c -6.78898,0.95304 -195.62013,2.80009 -195.61904,1.91344 z"
     id="path148"
     transform="scale(0.9375)" />
  <path
     style="fill:#00aa00;stroke-width:2.02714"
     d="M 6.0814099,1028.5594 C 6.0814099,1026.4159 673.9293,4.0542733 675.32952,4.0542733 c 1.70566,0 213.03044,312.0405867 213.33854,315.0140767 0.22809,2.20125 -94.20361,161.92781 -95.11718,160.88603 -0.25879,-0.29511 -27.13205,-37.93724 -59.71833,-83.64917 -32.58631,-45.71193 -59.94108,-83.37757 -60.78836,-83.7014 -1.4119,-0.53965 -363.71623,557.62505 -366.26447,564.26565 -0.96082,2.50383 14.26423,2.90784 109.57998,2.90784 60.88271,0 110.69583,0.42396 110.69583,0.94213 0,0.51818 -21.31316,34.04195 -47.36255,74.49728 l -47.36253,73.55509 -213.12453,0.5161 c -117.21848,0.2839 -213.1245101,-0.044 -213.1245101,-0.7285 z"
     id="path187"
     transform="scale(0.9375)" />
  <path
     style="fill:#00aa00;stroke-width:2.02714"
     d="m 1223.8409,1131.9162 -47.9807,-76.7916 7.5413,-0.4382 c 4.1477,-0.2411 52.1906,-1.4084 106.7621,-2.594 54.5714,-1.1856 99.5702,-2.5051 99.9974,-2.9323 0.9759,-0.9759 -365.0082,-564.60921 -366.6424,-564.64683 -0.6594,-0.0142 -27.04552,37.37934 -58.63587,83.09896 -56.55839,81.85498 -57.48583,83.05373 -60.62875,78.36527 -1.75546,-2.61872 -23.99354,-36.28593 -49.41796,-74.816 l -46.22622,-70.05468 105.9418,-160.67337 105.9418,-160.67338 3.5807,4.8886 c 13.3766,18.26268 668.4582,1020.27293 667.5892,1021.14193 -0.6017,0.6018 -95.3123,1.5044 -210.4679,2.0057 l -209.3737,0.9116 z"
     id="path226"
     transform="scale(0.9375)" />
  <path
     style="fill:#005500;stroke-width:2.02714"
     d="M 3.6026467,1379.4665 C 9.2311756,1369.868 211.76094,1056.5682 213.54705,1054.6968 c 1.80784,-1.8943 24.1523,-2.1258 97.82679,-1.0136 l 95.48378,1.4414 -47.248,88.1805 -47.24801,88.1804 356.17798,1.5115 c 195.89788,0.8313 362.75651,1.2874 370.79701,1.0136 l 14.6191,-0.498 -57.75422,-88.1804 -57.75418,-88.1804 56.31152,-1.2946 c 30.97138,-0.7121 74.78058,-1.8545 97.35388,-2.5389 l 41.0424,-1.2443 108.4633,162.6827 108.4633,162.6826 -94.773,1.4513 c -156.2526,2.3927 -1253.0673197,2.8973 -1251.7060533,0.5759 z"
     id="path265"
     transform="scale(0.9375)" />
  <path
     style="fill:#217821;stroke-width:2.02714"
     d="m 391.74416,1204.6312 c -14.77276,-0.3463 -26.85956,-1.1297 -26.85956,-1.7408 0,-0.9579 296.65644,-476.58715 302.83639,-485.53751 2.55521,-3.70067 9.75361,5.07559 73.83918,90.02445 l 34.84397,46.18753 -4.16137,8.15693 c -5.19073,10.1747 -23.71985,39.35983 -78.54826,123.72103 -23.64101,36.37497 -42.98365,66.85447 -42.98365,67.73217 0,1.676 216.27385,-0.3508 244.26997,-2.2891 l 16.21709,-1.1228 36.48846,64.3311 c 20.06865,35.3822 39.97893,70.5684 44.24503,78.1917 l 7.75658,13.8604 -290.54214,-0.4427 c -159.79817,-0.2434 -302.62894,-0.726 -317.40169,-1.0724 z"
     id="path341"
     transform="scale(0.9375)" />
  <path
     style="fill:#217821;stroke-width:2.02714"
     d="m 56.277459,1378.672 -50.147216,-1.2327 14.811999,-23.312 C 36.85499,1329.0828 173.7102,1117.3243 199.44301,1077.9299 l 15.55871,-23.8188 60.2447,0.2469 c 33.13458,0.1358 75.83858,0.82 94.89778,1.5204 l 34.65311,1.2734 -46.53211,86.7749 c -25.59266,47.7263 -46.1359,87.1712 -45.65168,87.6554 0.48424,0.4843 167.67507,1.4964 371.53518,2.2493 319.2954,1.1791 370.5002,0.971 369.5397,-1.5021 -0.6134,-1.579 -26.2713,-41.1838 -57.01764,-88.0107 l -55.90249,-85.1397 32.85253,-1.5012 c 24.63094,-1.1254 157.2754,-4.9998 158.7711,-4.6374 0.1297,0.032 48.614,72.6653 107.7428,161.4085 l 107.5068,161.3512 -41.8609,1.3286 c -54.9716,1.7446 -1184.55717,3.14 -1249.503141,1.5434 z"
     id="path417"
     transform="scale(0.9375)" />
  <path
     style="fill:#217821;stroke-width:2.02714"
     d="m 701.96099,1023.2662 c 33.48317,-57.10365 83.16395,-140.74083 84.22509,-141.79218 0.74608,-0.7392 59.5591,-2.00582 130.69561,-2.8147 101.78331,-1.15736 129.13311,-2.00764 128.37201,-3.99093 -0.5319,-1.38611 -27.4683,-44.91139 -59.85859,-96.72284 -32.39031,-51.81143 -59.4339,-95.61613 -60.09685,-97.34376 -0.77153,-2.01059 16.66411,-29.93933 48.44277,-77.59649 l 49.64807,-74.45532 9.6009,14.96308 c 127.2837,198.37267 306.9462,480.86774 306.2606,481.55334 -0.5,0.5 -104.7702,1.7159 -231.7115,2.7021 -126.94139,0.9861 -271.27275,2.3305 -320.73638,2.9875 l -89.93387,1.1946 z"
     id="path456"
     transform="scale(0.9375)" />
  <path
     style="fill:#217821;stroke-width:2.02714"
     d="m 354.04697,850.89061 c 0.86046,-1.39366 46.78252,-72.77421 102.04903,-158.62345 55.26651,-85.84923 126.453,-196.4356 158.19218,-245.74747 31.73919,-49.31188 58.18582,-89.67724 58.7703,-89.7008 0.58447,-0.0236 9.63561,12.95617 20.11366,28.84386 51.19562,77.62712 294.92598,451.99319 303.09443,465.54837 1.47324,2.44476 -11.78093,2.68711 -92.3527,1.6886 l -94.07278,-1.16583 -7.49806,-8.68062 c -4.12392,-4.77435 -33.31469,-47.70434 -64.86837,-95.40001 -31.55368,-47.69565 -57.91618,-86.73903 -58.58336,-86.76305 -1.28155,-0.0462 -62.04913,91.33147 -101.87204,153.18731 l -23.60861,36.67062 -50.17281,1.33379 c -85.35615,2.26914 -151.00373,1.74492 -149.19087,-1.19132 z"
     id="path495"
     transform="scale(0.9375)" />
  <path
     style="fill:#217821;stroke-width:2.02714"
     d="M 9.3949186,1025.2337 C 21.878295,1004.5802 646.62316,47.955984 669.40554,14.609699 l 5.94551,-8.7023726 5.5637,7.6888046 C 690.98502,27.512836 784.98547,165.79144 836.89718,243.05283 l 50.93925,75.81404 -6.4318,11.35284 c -19.53631,34.48366 -87.32935,148.36197 -87.88667,147.63147 -0.19319,-0.25327 -23.64974,-32.97768 -52.12553,-72.72089 -59.4258,-82.93965 -66.78988,-92.95125 -68.3706,-92.95125 -1.84836,0 -67.92742,100.9237 -242.53557,370.42878 -110.87158,171.12862 -124.69215,193.01124 -123.31204,195.24433 0.68791,1.11304 18.53012,1.92515 42.29556,1.92515 22.60817,0 71.25274,0.60156 108.09903,1.33678 l 66.99326,1.33677 -8.90507,14.37354 c -4.89779,7.90544 -25.62293,40.37156 -46.05588,72.14692 l -37.1508,57.77339 -212.29631,0.5162 c -169.826822,0.4128 -211.9887835,0.01 -210.7590914,-2.0272 z"
     id="path534"
     transform="scale(0.9375)" />
  <path
     style="fill:#217821;stroke-width:2.02714"
     d="m 1264.352,1194.5739 c -4.6975,-7.4778 -25.9643,-41.4569 -47.2595,-75.5091 l -38.7187,-61.913 22.5016,-1.4298 c 12.3759,-0.7864 59.7411,-2.2976 105.2561,-3.3583 45.5149,-1.0607 83.2278,-2.4019 83.8063,-2.9804 1.6592,-1.6592 -108.5235,-172.46323 -344.515,-534.06346 -11.125,-17.04641 -21.2432,-30.65486 -22.4848,-30.241 -1.2416,0.41386 -25.52269,34.09492 -53.95804,74.84681 -28.43534,40.75187 -54.09755,77.16494 -57.02711,80.91792 l -5.32648,6.82359 -48.0072,-72.71759 c -26.40396,-39.9947 -47.54363,-73.92566 -46.97703,-75.40219 0.56659,-1.4765 47.72943,-73.49531 104.80632,-160.04177 83.02618,-125.89372 104.26274,-156.82116 106.20954,-154.67633 3.7652,4.14806 205.7594,312.32458 475.4336,725.35507 195.201,298.96805 191.1532,292.60225 187.0005,294.08595 -1.9702,0.7039 -95.5211,1.8694 -207.8907,2.5898 l -204.3086,1.3099 z"
     id="path573"
     transform="scale(0.9375)" />
</svg>
