<?xml version="1.0" encoding="UTF-8" standalone="no"?>
<!-- Created with Inkscape (http://www.inkscape.org/) -->

<svg
   version="1.1"
   id="svg815"
   xml:space="preserve"
   width="880"
   height="880"
   viewBox="0 0 880 880"
   sodipodi:docname="masked-cowboy-green.svg"
   inkscape:version="1.1.1 (3bf5ae0d25, 2021-09-20, custom)"
   xmlns:inkscape="http://www.inkscape.org/namespaces/inkscape"
   xmlns:sodipodi="http://sodipodi.sourceforge.net/DTD/sodipodi-0.dtd"
   xmlns="http://www.w3.org/2000/svg"
   xmlns:svg="http://www.w3.org/2000/svg"
   xmlns:rdf="http://www.w3.org/1999/02/22-rdf-syntax-ns#"
   xmlns:cc="http://creativecommons.org/ns#"
   xmlns:dc="http://purl.org/dc/elements/1.1/"><metadata
     id="metadata821"><rdf:RDF><cc:Work
         rdf:about=""><dc:format>image/svg+xml</dc:format><dc:type
           rdf:resource="http://purl.org/dc/dcmitype/StillImage" /></cc:Work></rdf:RDF></metadata><defs
     id="defs819"><clipPath
       clipPathUnits="userSpaceOnUse"
       id="clipPath831"><path
         d="M 0,660 H 660 V 0 H 0 Z"
         id="path829"
         inkscape:connector-curvature="0" /></clipPath></defs><sodipodi:namedview
     pagecolor="#ffffff"
     bordercolor="#666666"
     borderopacity="1"
     objecttolerance="10"
     gridtolerance="10"
     guidetolerance="10"
     inkscape:pageopacity="0"
     inkscape:pageshadow="2"
     inkscape:window-width="1916"
     inkscape:window-height="1053"
     id="namedview817"
     showgrid="false"
     inkscape:zoom="0.96477273"
     inkscape:cx="440"
     inkscape:cy="399.05771"
     inkscape:window-x="0"
     inkscape:window-y="23"
     inkscape:window-maximized="1"
     inkscape:current-layer="g823"
     inkscape:pagecheckerboard="0" /><g
     id="g823"
     inkscape:groupmode="layer"
     inkscape:label="masked-cowboy-silhouette-freesvg.org"
     transform="matrix(1.3333333,0,0,-1.3333333,0,880)"><g
       id="g1068"><path
         inkscape:connector-curvature="0"
         id="path833"
         style="fill:#231f20;fill-opacity:1;fill-rule:nonzero;stroke:none"
         d="m 31.141,-25.146 h 3.677 c 1.135,0 2.026,0.106 2.672,0.318 0.646,0.212 1.161,0.51 1.545,0.893 0.54,0.541 0.961,1.269 1.262,2.182 0.302,0.914 0.453,2.022 0.453,3.322 0,1.804 -0.295,3.19 -0.887,4.159 -0.591,0.967 -1.31,1.617 -2.155,1.946 -0.612,0.235 -1.594,0.352 -2.949,0.352 h -3.618 z m -2.282,-2.031 v 17.235 h 5.932 c 1.338,0 2.36,-0.082 3.065,-0.247 0.986,-0.228 1.828,-0.639 2.525,-1.235 0.908,-0.767 1.587,-1.749 2.037,-2.944 0.451,-1.195 0.676,-2.562 0.676,-4.098 0,-1.308 -0.153,-2.469 -0.458,-3.479 -0.305,-1.011 -0.697,-1.848 -1.175,-2.51 -0.477,-0.663 -1,-1.184 -1.568,-1.564 -0.567,-0.38 -1.252,-0.668 -2.055,-0.864 -0.802,-0.196 -1.724,-0.294 -2.766,-0.294 z" /><path
         inkscape:connector-curvature="0"
         id="path835"
         style="fill:#231f20;fill-opacity:1;fill-rule:nonzero;stroke:none"
         d="m 47.546,-19.739 h 6.969 c -0.094,1.052 -0.36,1.842 -0.799,2.368 -0.674,0.817 -1.548,1.225 -2.621,1.225 -0.971,0 -1.788,-0.326 -2.45,-0.978 -0.662,-0.651 -1.028,-1.523 -1.099,-2.615 m 6.946,-3.407 2.187,-0.281 c -0.345,-1.277 -0.983,-2.268 -1.915,-2.973 -0.931,-0.705 -2.122,-1.058 -3.571,-1.058 -1.824,0 -3.272,0.562 -4.34,1.687 -1.069,1.124 -1.603,2.701 -1.603,4.731 0,2.1 0.54,3.729 1.621,4.889 1.08,1.16 2.482,1.74 4.205,1.74 1.668,0 3.03,-0.568 4.088,-1.704 1.057,-1.136 1.586,-2.735 1.586,-4.794 0,-0.126 -0.004,-0.315 -0.012,-0.565 h -9.317 c 0.079,-1.373 0.467,-2.425 1.165,-3.155 0.698,-0.729 1.569,-1.095 2.612,-1.095 0.776,0 1.439,0.205 1.988,0.616 0.549,0.41 0.984,1.064 1.306,1.962" /><path
         inkscape:connector-curvature="0"
         id="path837"
         style="fill:#231f20;fill-opacity:1;fill-rule:nonzero;stroke:none"
         d="m 58.489,-23.442 2.094,0.328 c 0.118,-0.842 0.445,-1.489 0.983,-1.937 0.538,-0.448 1.289,-0.673 2.254,-0.673 0.973,0 1.695,0.199 2.166,0.595 0.471,0.397 0.706,0.861 0.706,1.396 0,0.479 -0.207,0.855 -0.62,1.13 -0.289,0.189 -1.01,0.428 -2.163,0.719 -1.554,0.392 -2.631,0.731 -3.231,1.016 -0.6,0.286 -1.055,0.681 -1.365,1.187 -0.31,0.505 -0.464,1.063 -0.464,1.674 0,0.557 0.127,1.071 0.382,1.545 0.254,0.475 0.602,0.868 1.04,1.182 0.329,0.242 0.778,0.448 1.347,0.616 0.568,0.169 1.177,0.253 1.828,0.253 0.979,0 1.84,-0.141 2.58,-0.423 0.741,-0.282 1.288,-0.664 1.641,-1.145 0.352,-0.482 0.595,-1.125 0.729,-1.932 l -2.063,-0.281 c -0.094,0.642 -0.367,1.144 -0.818,1.505 -0.451,0.361 -1.089,0.541 -1.912,0.541 -0.974,0 -1.668,-0.161 -2.084,-0.483 -0.416,-0.321 -0.623,-0.698 -0.623,-1.13 0,-0.275 0.086,-0.523 0.259,-0.742 0.172,-0.228 0.443,-0.417 0.811,-0.566 0.212,-0.079 0.836,-0.259 1.872,-0.541 1.498,-0.401 2.543,-0.728 3.133,-0.982 0.59,-0.255 1.053,-0.625 1.389,-1.11 0.336,-0.487 0.504,-1.089 0.504,-1.81 0,-0.705 -0.206,-1.369 -0.617,-1.992 -0.412,-0.622 -1.006,-1.104 -1.783,-1.445 -0.776,-0.341 -1.654,-0.511 -2.634,-0.511 -1.623,0 -2.861,0.338 -3.711,1.013 -0.852,0.674 -1.395,1.675 -1.63,3.003" /><path
         inkscape:connector-curvature="0"
         id="path839"
         style="fill:#231f20;fill-opacity:1;fill-rule:nonzero;stroke:none"
         d="m 71.378,-14.692 h 2.109 v -12.484 h -2.109 z m 0,4.75 h 2.109 v -2.438 h -2.109 z" /><path
         inkscape:connector-curvature="0"
         id="path841"
         style="fill:#231f20;fill-opacity:1;fill-rule:nonzero;stroke:none"
         d="m 78.078,-20.712 c 0,-1.639 0.325,-2.834 0.974,-3.586 0.65,-0.753 1.464,-1.129 2.442,-1.129 0.97,0 1.784,0.374 2.442,1.123 0.657,0.748 0.985,1.922 0.985,3.522 0,1.528 -0.338,2.68 -1.015,3.457 -0.677,0.775 -1.492,1.164 -2.448,1.164 -0.938,0 -1.737,-0.383 -2.394,-1.147 -0.657,-0.764 -0.986,-1.899 -0.986,-3.404 m -1.75,-7.496 2.062,-0.313 c 0.086,-0.632 0.325,-1.093 0.716,-1.382 0.524,-0.391 1.24,-0.586 2.147,-0.586 0.978,0 1.733,0.196 2.265,0.588 0.531,0.392 0.892,0.941 1.079,1.647 0.11,0.432 0.16,1.337 0.153,2.718 -0.924,-1.094 -2.075,-1.641 -3.453,-1.641 -1.715,0 -3.043,0.619 -3.982,1.858 -0.94,1.238 -1.409,2.722 -1.409,4.455 0,1.191 0.216,2.29 0.646,3.297 0.431,1.006 1.056,1.785 1.874,2.333 0.819,0.548 1.78,0.823 2.885,0.823 1.472,0 2.687,-0.594 3.642,-1.781 v 1.5 h 1.953 v -10.789 c 0,-1.944 -0.198,-3.321 -0.593,-4.131 -0.396,-0.811 -1.023,-1.451 -1.881,-1.922 -0.858,-0.47 -1.914,-0.705 -3.168,-0.705 -1.488,0 -2.691,0.335 -3.608,1.005 -0.917,0.67 -1.36,1.678 -1.328,3.026" /><path
         inkscape:connector-curvature="0"
         id="path843"
         style="fill:#231f20;fill-opacity:1;fill-rule:nonzero;stroke:none"
         d="m 90.104,-27.177 v 12.485 h 1.89 v -1.775 c 0.916,1.37 2.24,2.056 3.97,2.056 0.752,0 1.444,-0.135 2.074,-0.405 0.63,-0.271 1.102,-0.625 1.415,-1.065 0.313,-0.438 0.533,-0.96 0.658,-1.563 0.078,-0.392 0.118,-1.077 0.118,-2.057 v -7.676 h -2.11 v 7.598 c 0,0.862 -0.082,1.507 -0.246,1.934 -0.165,0.427 -0.456,0.769 -0.875,1.023 -0.419,0.256 -0.911,0.383 -1.474,0.383 -0.9,0 -1.677,-0.286 -2.331,-0.859 -0.653,-0.572 -0.98,-1.658 -0.98,-3.257 v -6.822 z" /><path
         inkscape:connector-curvature="0"
         id="path845"
         style="fill:#231f20;fill-opacity:1;fill-rule:nonzero;stroke:none"
         d="m 105.062,-19.739 h 6.969 c -0.094,1.052 -0.361,1.842 -0.799,2.368 -0.674,0.817 -1.548,1.225 -2.621,1.225 -0.972,0 -1.788,-0.326 -2.45,-0.978 -0.662,-0.651 -1.029,-1.523 -1.099,-2.615 m 6.945,-3.407 2.188,-0.281 c -0.345,-1.277 -0.984,-2.268 -1.915,-2.973 -0.932,-0.705 -2.122,-1.058 -3.571,-1.058 -1.825,0 -3.272,0.562 -4.34,1.687 -1.07,1.124 -1.604,2.701 -1.604,4.731 0,2.1 0.54,3.729 1.621,4.889 1.081,1.16 2.483,1.74 4.205,1.74 1.668,0 3.031,-0.568 4.088,-1.704 1.057,-1.136 1.586,-2.735 1.586,-4.794 0,-0.126 -0.004,-0.315 -0.012,-0.565 h -9.316 c 0.078,-1.373 0.467,-2.425 1.165,-3.155 0.697,-0.729 1.568,-1.095 2.611,-1.095 0.777,0 1.439,0.205 1.989,0.616 0.548,0.41 0.984,1.064 1.305,1.962" /><path
         inkscape:connector-curvature="0"
         id="path847"
         style="fill:#231f20;fill-opacity:1;fill-rule:nonzero;stroke:none"
         d="m 118.255,-20.948 c 0,-1.6 0.337,-2.795 1.01,-3.588 0.674,-0.791 1.469,-1.188 2.385,-1.188 0.924,0 1.709,0.378 2.355,1.135 0.646,0.757 0.969,1.911 0.969,3.464 0,1.71 -0.329,2.964 -0.987,3.765 -0.657,0.798 -1.468,1.199 -2.431,1.199 -0.94,0 -1.724,-0.385 -2.355,-1.152 -0.63,-0.77 -0.946,-1.981 -0.946,-3.635 m 6.688,-6.229 v 1.571 c -0.791,-1.235 -1.955,-1.852 -3.49,-1.852 -0.995,0 -1.91,0.274 -2.744,0.822 -0.834,0.549 -1.48,1.315 -1.938,2.299 -0.458,0.983 -0.688,2.113 -0.688,3.391 0,1.246 0.208,2.376 0.624,3.39 0.415,1.015 1.037,1.793 1.868,2.334 0.83,0.54 1.758,0.811 2.784,0.811 0.752,0 1.422,-0.158 2.01,-0.476 0.587,-0.317 1.065,-0.73 1.433,-1.239 v 6.184 h 2.11 v -17.235 z" /><path
         inkscape:connector-curvature="0"
         id="path849"
         style="fill:#231f20;fill-opacity:1;fill-rule:nonzero;stroke:none"
         d="m 144.882,-20.911 c -0.767,-0.314 -1.918,-0.58 -3.451,-0.799 -0.869,-0.126 -1.484,-0.268 -1.844,-0.424 -0.36,-0.156 -0.637,-0.386 -0.833,-0.687 -0.196,-0.302 -0.294,-0.637 -0.294,-1.006 0,-0.565 0.213,-1.034 0.639,-1.41 0.426,-0.377 1.049,-0.565 1.869,-0.565 0.813,0 1.535,0.178 2.168,0.535 0.633,0.357 1.098,0.844 1.395,1.463 0.226,0.479 0.34,1.184 0.34,2.117 z m 0.172,-4.719 c -0.786,-0.668 -1.541,-1.141 -2.263,-1.415 -0.723,-0.275 -1.499,-0.413 -2.327,-0.413 -1.367,0 -2.418,0.335 -3.152,1.005 -0.734,0.67 -1.102,1.526 -1.102,2.567 0,0.612 0.139,1.17 0.416,1.675 0.278,0.506 0.641,0.911 1.09,1.217 0.45,0.306 0.955,0.536 1.518,0.693 0.414,0.11 1.039,0.216 1.875,0.318 1.703,0.203 2.957,0.446 3.762,0.728 0.007,0.29 0.011,0.475 0.011,0.553 0,0.863 -0.199,1.471 -0.598,1.823 -0.539,0.479 -1.341,0.718 -2.404,0.718 -0.992,0 -1.725,-0.175 -2.198,-0.524 -0.474,-0.348 -0.823,-0.965 -1.05,-1.851 l -2.062,0.281 c 0.188,0.886 0.497,1.601 0.928,2.146 0.43,0.544 1.052,0.963 1.867,1.256 0.814,0.295 1.758,0.442 2.831,0.442 1.064,0 1.929,-0.125 2.596,-0.376 0.665,-0.251 1.154,-0.567 1.467,-0.946 0.314,-0.38 0.533,-0.861 0.658,-1.44 0.071,-0.361 0.106,-1.012 0.106,-1.951 v -2.822 c 0,-1.967 0.045,-3.211 0.136,-3.733 0.09,-0.52 0.268,-1.019 0.536,-1.498 h -2.203 c -0.227,0.442 -0.373,0.957 -0.438,1.547" /><path
         inkscape:connector-curvature="0"
         id="path851"
         style="fill:#231f20;fill-opacity:1;fill-rule:nonzero;stroke:none"
         d="m 150.31,-27.177 v 12.485 h 1.89 v -1.775 c 0.916,1.37 2.24,2.056 3.97,2.056 0.752,0 1.444,-0.135 2.074,-0.405 0.631,-0.271 1.102,-0.625 1.415,-1.065 0.313,-0.438 0.533,-0.96 0.658,-1.563 0.078,-0.392 0.118,-1.077 0.118,-2.057 v -7.676 h -2.11 v 7.598 c 0,0.862 -0.082,1.507 -0.246,1.934 -0.165,0.427 -0.456,0.769 -0.875,1.023 -0.419,0.256 -0.911,0.383 -1.474,0.383 -0.9,0 -1.677,-0.286 -2.331,-0.859 -0.653,-0.572 -0.98,-1.658 -0.98,-3.257 v -6.822 z" /><path
         inkscape:connector-curvature="0"
         id="path853"
         style="fill:#231f20;fill-opacity:1;fill-rule:nonzero;stroke:none"
         d="m 165.081,-20.948 c 0,-1.6 0.336,-2.795 1.009,-3.588 0.674,-0.791 1.469,-1.188 2.385,-1.188 0.924,0 1.709,0.378 2.356,1.135 0.645,0.757 0.968,1.911 0.968,3.464 0,1.71 -0.329,2.964 -0.986,3.765 -0.658,0.798 -1.469,1.199 -2.432,1.199 -0.94,0 -1.724,-0.385 -2.355,-1.152 -0.63,-0.77 -0.945,-1.981 -0.945,-3.635 m 6.687,-6.229 v 1.571 c -0.791,-1.235 -1.955,-1.852 -3.49,-1.852 -0.994,0 -1.909,0.274 -2.743,0.822 -0.834,0.549 -1.481,1.315 -1.939,2.299 -0.458,0.983 -0.687,2.113 -0.687,3.391 0,1.246 0.207,2.376 0.623,3.39 0.415,1.015 1.037,1.793 1.868,2.334 0.83,0.54 1.758,0.811 2.785,0.811 0.752,0 1.421,-0.158 2.009,-0.476 0.587,-0.317 1.065,-0.73 1.433,-1.239 v 6.184 h 2.11 v -17.235 z" /><path
         inkscape:connector-curvature="0"
         id="path855"
         style="fill:#231f20;fill-opacity:1;fill-rule:nonzero;stroke:none"
         d="m 183.724,-27.177 v 12.485 h 1.89 v -1.895 c 0.487,0.886 0.937,1.471 1.349,1.752 0.413,0.283 0.867,0.424 1.362,0.424 0.715,0 1.441,-0.228 2.18,-0.682 l -0.74,-1.957 c -0.516,0.301 -1.033,0.451 -1.549,0.451 -0.461,0 -0.876,-0.138 -1.243,-0.417 -0.368,-0.278 -0.63,-0.664 -0.787,-1.158 -0.235,-0.752 -0.353,-1.575 -0.353,-2.468 v -6.535 z" /><path
         inkscape:connector-curvature="0"
         id="path857"
         style="fill:#231f20;fill-opacity:1;fill-rule:nonzero;stroke:none"
         d="m 193.345,-19.739 h 6.968 c -0.094,1.052 -0.36,1.842 -0.799,2.368 -0.674,0.817 -1.547,1.225 -2.62,1.225 -0.972,0 -1.789,-0.326 -2.451,-0.978 -0.662,-0.651 -1.028,-1.523 -1.098,-2.615 m 6.945,-3.407 2.187,-0.281 c -0.345,-1.277 -0.982,-2.268 -1.914,-2.973 -0.933,-0.705 -2.123,-1.058 -3.571,-1.058 -1.825,0 -3.272,0.562 -4.341,1.687 -1.068,1.124 -1.603,2.701 -1.603,4.731 0,2.1 0.54,3.729 1.621,4.889 1.081,1.16 2.482,1.74 4.206,1.74 1.667,0 3.03,-0.568 4.087,-1.704 1.057,-1.136 1.586,-2.735 1.586,-4.794 0,-0.126 -0.004,-0.315 -0.012,-0.565 h -9.316 c 0.078,-1.373 0.466,-2.425 1.164,-3.155 0.699,-0.729 1.569,-1.095 2.612,-1.095 0.776,0 1.439,0.205 1.988,0.616 0.549,0.41 0.984,1.064 1.306,1.962" /><path
         inkscape:connector-curvature="0"
         id="path859"
         style="fill:#231f20;fill-opacity:1;fill-rule:nonzero;stroke:none"
         d="m 205.1,-9.942 h 2.109 V -27.176 H 205.1 Z" /><path
         inkscape:connector-curvature="0"
         id="path861"
         style="fill:#231f20;fill-opacity:1;fill-rule:nonzero;stroke:none"
         d="m 212.07,-19.739 h 6.969 c -0.094,1.052 -0.361,1.842 -0.799,2.368 -0.674,0.817 -1.547,1.225 -2.62,1.225 -0.972,0 -1.789,-0.326 -2.451,-0.978 -0.662,-0.651 -1.028,-1.523 -1.099,-2.615 m 6.946,-3.407 2.187,-0.281 c -0.345,-1.277 -0.983,-2.268 -1.915,-2.973 -0.932,-0.705 -2.122,-1.058 -3.571,-1.058 -1.824,0 -3.271,0.562 -4.341,1.687 -1.068,1.124 -1.603,2.701 -1.603,4.731 0,2.1 0.541,3.729 1.622,4.889 1.08,1.16 2.482,1.74 4.205,1.74 1.668,0 3.03,-0.568 4.088,-1.704 1.057,-1.136 1.585,-2.735 1.585,-4.794 0,-0.126 -0.003,-0.315 -0.011,-0.565 h -9.317 c 0.079,-1.373 0.467,-2.425 1.165,-3.155 0.698,-0.729 1.568,-1.095 2.612,-1.095 0.776,0 1.439,0.205 1.987,0.616 0.549,0.41 0.985,1.064 1.307,1.962" /><path
         inkscape:connector-curvature="0"
         id="path863"
         style="fill:#231f20;fill-opacity:1;fill-rule:nonzero;stroke:none"
         d="m 231.826,-20.911 c -0.767,-0.314 -1.918,-0.58 -3.452,-0.799 -0.869,-0.126 -1.483,-0.268 -1.843,-0.424 -0.361,-0.156 -0.638,-0.386 -0.834,-0.687 -0.196,-0.302 -0.293,-0.637 -0.293,-1.006 0,-0.565 0.213,-1.034 0.638,-1.41 0.426,-0.377 1.049,-0.565 1.87,-0.565 0.812,0 1.535,0.178 2.168,0.535 0.632,0.357 1.097,0.844 1.394,1.463 0.227,0.479 0.34,1.184 0.34,2.117 z m 0.172,-4.719 c -0.787,-0.668 -1.541,-1.141 -2.264,-1.415 -0.723,-0.275 -1.498,-0.413 -2.326,-0.413 -1.367,0 -2.418,0.335 -3.153,1.005 -0.734,0.67 -1.101,1.526 -1.101,2.567 0,0.612 0.138,1.17 0.416,1.675 0.277,0.506 0.64,0.911 1.09,1.217 0.449,0.306 0.955,0.536 1.517,0.693 0.414,0.11 1.039,0.216 1.875,0.318 1.703,0.203 2.957,0.446 3.762,0.728 0.008,0.29 0.012,0.475 0.012,0.553 0,0.863 -0.2,1.471 -0.598,1.823 -0.54,0.479 -1.341,0.718 -2.404,0.718 -0.993,0 -1.726,-0.175 -2.199,-0.524 -0.473,-0.348 -0.823,-0.965 -1.049,-1.851 l -2.063,0.281 c 0.188,0.886 0.497,1.601 0.928,2.146 0.431,0.544 1.053,0.963 1.867,1.256 0.815,0.295 1.758,0.442 2.831,0.442 1.065,0 1.93,-0.125 2.596,-0.376 0.665,-0.251 1.155,-0.567 1.468,-0.946 0.313,-0.38 0.532,-0.861 0.658,-1.44 0.07,-0.361 0.105,-1.012 0.105,-1.951 v -2.822 c 0,-1.967 0.045,-3.211 0.136,-3.733 0.09,-0.52 0.269,-1.019 0.536,-1.498 h -2.203 c -0.227,0.442 -0.373,0.957 -0.437,1.547" /><path
         inkscape:connector-curvature="0"
         id="path865"
         style="fill:#231f20;fill-opacity:1;fill-rule:nonzero;stroke:none"
         d="m 236.394,-23.442 2.093,0.328 c 0.118,-0.842 0.446,-1.489 0.983,-1.937 0.538,-0.448 1.289,-0.673 2.254,-0.673 0.974,0 1.695,0.199 2.166,0.595 0.471,0.397 0.707,0.861 0.707,1.396 0,0.479 -0.207,0.855 -0.621,1.13 -0.289,0.189 -1.01,0.428 -2.163,0.719 -1.554,0.392 -2.631,0.731 -3.23,1.016 -0.601,0.286 -1.056,0.681 -1.366,1.187 -0.309,0.505 -0.464,1.063 -0.464,1.674 0,0.557 0.127,1.071 0.382,1.545 0.255,0.475 0.602,0.868 1.04,1.182 0.329,0.242 0.779,0.448 1.347,0.616 0.568,0.169 1.178,0.253 1.828,0.253 0.98,0 1.84,-0.141 2.581,-0.423 0.74,-0.282 1.287,-0.664 1.64,-1.145 0.352,-0.482 0.596,-1.125 0.729,-1.932 l -2.063,-0.281 c -0.094,0.642 -0.366,1.144 -0.818,1.505 -0.451,0.361 -1.088,0.541 -1.912,0.541 -0.973,0 -1.668,-0.161 -2.084,-0.483 -0.416,-0.321 -0.623,-0.698 -0.623,-1.13 0,-0.275 0.086,-0.523 0.259,-0.742 0.172,-0.228 0.443,-0.417 0.812,-0.566 0.212,-0.079 0.836,-0.259 1.871,-0.541 1.499,-0.401 2.543,-0.728 3.133,-0.982 0.59,-0.255 1.053,-0.625 1.389,-1.11 0.336,-0.487 0.505,-1.089 0.505,-1.81 0,-0.705 -0.206,-1.369 -0.618,-1.992 -0.412,-0.622 -1.006,-1.104 -1.782,-1.445 -0.777,-0.341 -1.655,-0.511 -2.635,-0.511 -1.623,0 -2.86,0.338 -3.711,1.013 -0.852,0.674 -1.395,1.675 -1.629,3.003" /><path
         inkscape:connector-curvature="0"
         id="path867"
         style="fill:#231f20;fill-opacity:1;fill-rule:nonzero;stroke:none"
         d="m 250.861,-19.739 h 6.969 c -0.094,1.052 -0.361,1.842 -0.799,2.368 -0.674,0.817 -1.548,1.225 -2.621,1.225 -0.972,0 -1.788,-0.326 -2.451,-0.978 -0.662,-0.651 -1.028,-1.523 -1.098,-2.615 m 6.945,-3.407 2.188,-0.281 c -0.345,-1.277 -0.984,-2.268 -1.915,-2.973 -0.932,-0.705 -2.122,-1.058 -3.572,-1.058 -1.824,0 -3.271,0.562 -4.34,1.687 -1.069,1.124 -1.603,2.701 -1.603,4.731 0,2.1 0.54,3.729 1.621,4.889 1.08,1.16 2.482,1.74 4.205,1.74 1.668,0 3.031,-0.568 4.088,-1.704 1.057,-1.136 1.586,-2.735 1.586,-4.794 0,-0.126 -0.004,-0.315 -0.012,-0.565 h -9.316 c 0.078,-1.373 0.467,-2.425 1.164,-3.155 0.698,-0.729 1.569,-1.095 2.612,-1.095 0.777,0 1.439,0.205 1.988,0.616 0.549,0.41 0.984,1.064 1.306,1.962" /><path
         inkscape:connector-curvature="0"
         id="path869"
         style="fill:#231f20;fill-opacity:1;fill-rule:nonzero;stroke:none"
         d="m 264.053,-20.948 c 0,-1.6 0.337,-2.795 1.01,-3.588 0.674,-0.791 1.469,-1.188 2.385,-1.188 0.924,0 1.709,0.378 2.355,1.135 0.646,0.757 0.969,1.911 0.969,3.464 0,1.71 -0.329,2.964 -0.987,3.765 -0.658,0.798 -1.468,1.199 -2.431,1.199 -0.94,0 -1.725,-0.385 -2.355,-1.152 -0.63,-0.77 -0.946,-1.981 -0.946,-3.635 m 6.688,-6.229 v 1.571 c -0.791,-1.235 -1.954,-1.852 -3.49,-1.852 -0.995,0 -1.91,0.274 -2.744,0.822 -0.834,0.549 -1.48,1.315 -1.938,2.299 -0.458,0.983 -0.688,2.113 -0.688,3.391 0,1.246 0.208,2.376 0.623,3.39 0.415,1.015 1.038,1.793 1.869,2.334 0.83,0.54 1.757,0.811 2.785,0.811 0.752,0 1.422,-0.158 2.009,-0.476 0.586,-0.317 1.065,-0.73 1.433,-1.239 v 6.184 h 2.109 v -17.235 z" /><path
         inkscape:connector-curvature="0"
         id="path871"
         style="fill:#231f20;fill-opacity:1;fill-rule:nonzero;stroke:none"
         d="m 282.728,-14.692 h 2.109 v -12.484 h -2.109 z m 0,4.75 h 2.109 v -2.438 h -2.109 z" /><path
         inkscape:connector-curvature="0"
         id="path873"
         style="fill:#231f20;fill-opacity:1;fill-rule:nonzero;stroke:none"
         d="m 288.073,-27.177 v 12.485 h 1.89 v -1.775 c 0.916,1.37 2.24,2.056 3.971,2.056 0.751,0 1.442,-0.135 2.073,-0.405 0.63,-0.271 1.102,-0.625 1.415,-1.065 0.314,-0.438 0.533,-0.96 0.659,-1.563 0.078,-0.392 0.117,-1.077 0.117,-2.057 v -7.676 h -2.11 v 7.598 c 0,0.862 -0.082,1.507 -0.247,1.934 -0.164,0.427 -0.455,0.769 -0.874,1.023 -0.419,0.256 -0.91,0.383 -1.473,0.383 -0.901,0 -1.678,-0.286 -2.331,-0.859 -0.654,-0.572 -0.981,-1.658 -0.981,-3.257 v -6.822 z" /><path
         inkscape:connector-curvature="0"
         id="path875"
         style="fill:#231f20;fill-opacity:1;fill-rule:nonzero;stroke:none"
         d="m 310.043,-21.007 c 0,-1.607 0.326,-2.796 0.975,-3.564 0.649,-0.769 1.436,-1.153 2.359,-1.153 0.939,0 1.744,0.399 2.413,1.194 0.668,0.797 1.003,2.029 1.003,3.699 0,1.592 -0.327,2.783 -0.98,3.576 -0.653,0.791 -1.435,1.188 -2.342,1.188 -0.899,0 -1.696,-0.422 -2.388,-1.265 -0.693,-0.843 -1.04,-2.067 -1.04,-3.675 m -1.906,-10.951 v 17.266 h 1.922 v -1.622 c 0.454,0.633 0.968,1.11 1.539,1.427 0.571,0.318 1.265,0.476 2.08,0.476 1.066,0 2.005,-0.275 2.82,-0.822 0.814,-0.549 1.429,-1.324 1.844,-2.323 0.415,-0.999 0.623,-2.093 0.623,-3.285 0,-1.277 -0.229,-2.427 -0.687,-3.449 -0.458,-1.023 -1.124,-1.807 -1.997,-2.352 -0.874,-0.544 -1.793,-0.816 -2.756,-0.816 -0.705,0 -1.338,0.148 -1.898,0.445 -0.56,0.297 -1.02,0.672 -1.38,1.125 v -6.07 z" /><path
         inkscape:connector-curvature="0"
         id="path877"
         style="fill:#231f20;fill-opacity:1;fill-rule:nonzero;stroke:none"
         d="m 329.674,-27.177 v 1.841 c -0.968,-1.415 -2.285,-2.122 -3.949,-2.122 -0.734,0 -1.42,0.141 -2.057,0.423 -0.636,0.282 -1.109,0.637 -1.418,1.064 -0.308,0.427 -0.525,0.95 -0.65,1.57 -0.086,0.415 -0.129,1.073 -0.129,1.974 v 7.735 h 2.11 v -6.92 c 0,-1.105 0.043,-1.848 0.128,-2.233 0.133,-0.555 0.415,-0.992 0.845,-1.309 0.43,-0.318 0.961,-0.476 1.595,-0.476 0.633,0 1.227,0.162 1.782,0.487 0.555,0.326 0.947,0.768 1.179,1.328 0.23,0.56 0.346,1.373 0.346,2.438 v 6.685 h 2.108 v -12.485 z" /><path
         inkscape:connector-curvature="0"
         id="path879"
         style="fill:#231f20;fill-opacity:1;fill-rule:nonzero;stroke:none"
         d="m 336.804,-20.841 c 0,-1.498 0.204,-2.58 0.612,-3.247 0.667,-1.091 1.569,-1.636 2.708,-1.636 0.926,0 1.727,0.403 2.401,1.206 0.675,0.804 1.013,2.002 1.013,3.595 0,1.632 -0.324,2.836 -0.972,3.612 -0.647,0.777 -1.43,1.165 -2.348,1.165 -0.926,0 -1.727,-0.402 -2.402,-1.206 -0.674,-0.803 -1.012,-1.966 -1.012,-3.489 m 0.031,-6.336 h -1.953 v 17.235 h 2.109 v -6.145 c 0.895,1.117 2.035,1.676 3.424,1.676 0.769,0 1.496,-0.154 2.183,-0.465 0.686,-0.309 1.251,-0.744 1.694,-1.305 0.443,-0.559 0.791,-1.235 1.041,-2.027 0.252,-0.791 0.377,-1.638 0.377,-2.539 0,-2.139 -0.529,-3.792 -1.589,-4.96 -1.059,-1.167 -2.331,-1.751 -3.813,-1.751 -1.476,0 -2.633,0.613 -3.473,1.84 z" /><path
         inkscape:connector-curvature="0"
         id="path881"
         style="fill:#231f20;fill-opacity:1;fill-rule:nonzero;stroke:none"
         d="m 348.231,-9.942 h 2.109 v -17.234 h -2.109 z" /><path
         inkscape:connector-curvature="0"
         id="path883"
         style="fill:#231f20;fill-opacity:1;fill-rule:nonzero;stroke:none"
         d="m 353.623,-14.692 h 2.109 v -12.484 h -2.109 z m 0,4.75 h 2.109 v -2.438 h -2.109 z" /><path
         inkscape:connector-curvature="0"
         id="path885"
         style="fill:#231f20;fill-opacity:1;fill-rule:nonzero;stroke:none"
         d="m 367.109,-22.599 2.079,-0.281 c -0.228,-1.432 -0.81,-2.553 -1.747,-3.363 -0.936,-0.811 -2.087,-1.215 -3.45,-1.215 -1.709,0 -3.082,0.559 -4.121,1.675 -1.039,1.116 -1.557,2.717 -1.557,4.802 0,1.347 0.223,2.527 0.669,3.537 0.447,1.011 1.126,1.769 2.039,2.275 0.914,0.505 1.907,0.758 2.98,0.758 1.355,0 2.465,-0.344 3.326,-1.029 0.861,-0.687 1.414,-1.662 1.657,-2.924 l -2.062,-0.313 c -0.196,0.84 -0.542,1.472 -1.04,1.896 -0.497,0.424 -1.098,0.635 -1.803,0.635 -1.065,0 -1.931,-0.382 -2.596,-1.147 -0.666,-0.765 -0.999,-1.975 -0.999,-3.63 0,-1.679 0.322,-2.898 0.965,-3.659 0.644,-0.761 1.483,-1.142 2.519,-1.142 0.831,0 1.525,0.256 2.082,0.767 0.557,0.511 0.91,1.297 1.059,2.358" /><path
         inkscape:connector-curvature="0"
         id="path887"
         style="fill:#231f20;fill-opacity:1;fill-rule:nonzero;stroke:none"
         d="m 379.073,-20.948 c 0,-1.6 0.337,-2.795 1.01,-3.588 0.674,-0.791 1.469,-1.188 2.385,-1.188 0.924,0 1.709,0.378 2.355,1.135 0.646,0.757 0.969,1.911 0.969,3.464 0,1.71 -0.329,2.964 -0.986,3.765 -0.659,0.798 -1.469,1.199 -2.432,1.199 -0.939,0 -1.725,-0.385 -2.355,-1.152 -0.63,-0.77 -0.946,-1.981 -0.946,-3.635 m 6.688,-6.229 v 1.571 c -0.791,-1.235 -1.955,-1.852 -3.49,-1.852 -0.995,0 -1.91,0.274 -2.744,0.822 -0.834,0.549 -1.48,1.315 -1.938,2.299 -0.459,0.983 -0.688,2.113 -0.688,3.391 0,1.246 0.207,2.376 0.623,3.39 0.415,1.015 1.038,1.793 1.869,2.334 0.83,0.54 1.758,0.811 2.784,0.811 0.752,0 1.422,-0.158 2.01,-0.476 0.587,-0.317 1.065,-0.73 1.433,-1.239 v 6.184 h 2.109 v -17.235 z" /><path
         inkscape:connector-curvature="0"
         id="path889"
         style="fill:#231f20;fill-opacity:1;fill-rule:nonzero;stroke:none"
         d="m 392.438,-20.937 c 0,-1.599 0.348,-2.796 1.045,-3.593 0.698,-0.795 1.575,-1.194 2.632,-1.194 1.05,0 1.923,0.401 2.62,1.2 0.698,0.8 1.046,2.019 1.046,3.658 0,1.545 -0.35,2.715 -1.052,3.512 -0.701,0.794 -1.572,1.193 -2.614,1.193 -1.057,0 -1.934,-0.397 -2.632,-1.188 -0.697,-0.793 -1.045,-1.988 -1.045,-3.588 m -2.172,0.002 c 0,2.312 0.641,4.024 1.926,5.137 1.073,0.924 2.38,1.387 3.923,1.387 1.715,0 3.116,-0.563 4.205,-1.687 1.089,-1.125 1.633,-2.678 1.633,-4.661 0,-1.605 -0.241,-2.869 -0.723,-3.79 -0.481,-0.921 -1.182,-1.636 -2.102,-2.145 -0.92,-0.509 -1.924,-0.764 -3.013,-0.764 -1.746,0 -3.158,0.561 -4.234,1.681 -1.077,1.12 -1.615,2.735 -1.615,4.842" /><path
         inkscape:connector-curvature="0"
         id="path891"
         style="fill:#231f20;fill-opacity:1;fill-rule:nonzero;stroke:none"
         d="m 404.436,-27.177 v 12.485 h 1.89 v -1.747 c 0.392,0.609 0.911,1.1 1.561,1.471 0.649,0.371 1.387,0.557 2.217,0.557 0.922,0 1.679,-0.192 2.27,-0.574 0.59,-0.384 1.007,-0.919 1.249,-1.607 0.988,1.454 2.275,2.181 3.859,2.181 1.24,0 2.193,-0.343 2.86,-1.028 0.667,-0.687 1,-1.743 1,-3.168 v -8.57 h -2.11 v 7.868 c 0,0.847 -0.068,1.456 -0.206,1.83 -0.136,0.372 -0.385,0.671 -0.746,0.899 -0.361,0.227 -0.785,0.341 -1.27,0.341 -0.879,0 -1.609,-0.292 -2.189,-0.876 -0.58,-0.585 -0.87,-1.52 -0.87,-2.806 v -7.256 h -2.109 v 8.115 c 0,0.941 -0.172,1.647 -0.517,2.117 -0.345,0.47 -0.908,0.706 -1.691,0.706 -0.595,0 -1.145,-0.157 -1.651,-0.471 -0.504,-0.313 -0.871,-0.772 -1.097,-1.376 -0.227,-0.603 -0.341,-1.474 -0.341,-2.61 v -6.481 z" /><path
         inkscape:connector-curvature="0"
         id="path893"
         style="fill:#231f20;fill-opacity:1;fill-rule:nonzero;stroke:none"
         d="m 432.438,-20.911 c -0.767,-0.314 -1.918,-0.58 -3.453,-0.799 -0.868,-0.126 -1.482,-0.268 -1.842,-0.424 -0.361,-0.156 -0.638,-0.386 -0.833,-0.687 -0.197,-0.302 -0.294,-0.637 -0.294,-1.006 0,-0.565 0.213,-1.034 0.638,-1.41 0.426,-0.377 1.049,-0.565 1.869,-0.565 0.813,0 1.536,0.178 2.168,0.535 0.633,0.357 1.098,0.844 1.395,1.463 0.227,0.479 0.34,1.184 0.34,2.117 z m 0.171,-4.719 c -0.786,-0.668 -1.541,-1.141 -2.263,-1.415 -0.723,-0.275 -1.498,-0.413 -2.326,-0.413 -1.368,0 -2.418,0.335 -3.153,1.005 -0.734,0.67 -1.101,1.526 -1.101,2.567 0,0.612 0.138,1.17 0.416,1.675 0.277,0.506 0.64,0.911 1.089,1.217 0.45,0.306 0.956,0.536 1.518,0.693 0.414,0.11 1.039,0.216 1.875,0.318 1.703,0.203 2.957,0.446 3.762,0.728 0.008,0.29 0.012,0.475 0.012,0.553 0,0.863 -0.2,1.471 -0.599,1.823 -0.539,0.479 -1.34,0.718 -2.403,0.718 -0.994,0 -1.726,-0.175 -2.199,-0.524 -0.473,-0.348 -0.823,-0.965 -1.049,-1.851 l -2.063,0.281 c 0.188,0.886 0.497,1.601 0.928,2.146 0.43,0.544 1.052,0.963 1.867,1.256 0.814,0.295 1.759,0.442 2.831,0.442 1.064,0 1.93,-0.125 2.596,-0.376 0.665,-0.251 1.154,-0.567 1.467,-0.946 0.314,-0.38 0.533,-0.861 0.659,-1.44 0.07,-0.361 0.105,-1.012 0.105,-1.951 v -2.822 c 0,-1.967 0.045,-3.211 0.136,-3.733 0.09,-0.52 0.268,-1.019 0.536,-1.498 h -2.203 c -0.228,0.442 -0.373,0.957 -0.438,1.547" /><path
         inkscape:connector-curvature="0"
         id="path895"
         style="fill:#231f20;fill-opacity:1;fill-rule:nonzero;stroke:none"
         d="m 437.865,-14.692 h 2.109 v -12.484 h -2.109 z m 0,4.75 h 2.109 v -2.438 h -2.109 z" /><path
         inkscape:connector-curvature="0"
         id="path897"
         style="fill:#231f20;fill-opacity:1;fill-rule:nonzero;stroke:none"
         d="m 443.21,-27.177 v 12.485 h 1.891 v -1.775 c 0.916,1.37 2.239,2.056 3.97,2.056 0.752,0 1.443,-0.135 2.074,-0.405 0.629,-0.271 1.101,-0.625 1.415,-1.065 0.313,-0.438 0.532,-0.96 0.658,-1.563 0.078,-0.392 0.117,-1.077 0.117,-2.057 v -7.676 h -2.109 v 7.598 c 0,0.862 -0.082,1.507 -0.247,1.934 -0.165,0.427 -0.457,0.769 -0.875,1.023 -0.418,0.256 -0.91,0.383 -1.473,0.383 -0.901,0 -1.678,-0.286 -2.331,-0.859 -0.654,-0.572 -0.981,-1.658 -0.981,-3.257 v -6.822 z" /><path
         inkscape:connector-curvature="0"
         id="path899"
         style="fill:#231f20;fill-opacity:1;fill-rule:nonzero;stroke:none"
         d="m 465.181,-20.841 c 0,-1.498 0.204,-2.58 0.612,-3.247 0.667,-1.091 1.569,-1.636 2.708,-1.636 0.926,0 1.727,0.403 2.401,1.206 0.675,0.804 1.013,2.002 1.013,3.595 0,1.632 -0.324,2.836 -0.972,3.612 -0.647,0.777 -1.43,1.165 -2.348,1.165 -0.926,0 -1.727,-0.402 -2.402,-1.206 -0.674,-0.803 -1.012,-1.966 -1.012,-3.489 m 0.031,-6.336 h -1.953 v 17.235 h 2.109 v -6.145 c 0.895,1.117 2.035,1.676 3.424,1.676 0.769,0 1.496,-0.154 2.183,-0.465 0.686,-0.309 1.251,-0.744 1.694,-1.305 0.443,-0.559 0.791,-1.235 1.041,-2.027 0.252,-0.791 0.377,-1.638 0.377,-2.539 0,-2.139 -0.529,-3.792 -1.589,-4.96 -1.06,-1.167 -2.331,-1.751 -3.813,-1.751 -1.476,0 -2.633,0.613 -3.473,1.84 z" /><path
         inkscape:connector-curvature="0"
         id="path901"
         style="fill:#231f20;fill-opacity:1;fill-rule:nonzero;stroke:none"
         d="m 476.562,-31.979 -0.235,1.99 c 0.461,-0.125 0.864,-0.188 1.208,-0.188 0.47,0 0.845,0.078 1.126,0.235 0.281,0.157 0.513,0.377 0.693,0.658 0.132,0.212 0.347,0.736 0.645,1.574 0.039,0.118 0.102,0.29 0.188,0.518 l -4.75,12.5 h 2.28 l 2.602,-7.198 c 0.338,-0.912 0.64,-1.872 0.908,-2.879 0.244,0.941 0.535,1.873 0.873,2.797 l 2.665,7.28 h 2.114 l -4.733,-12.704 c -0.51,-1.369 -0.906,-2.31 -1.188,-2.827 -0.376,-0.695 -0.807,-1.205 -1.293,-1.53 -0.486,-0.324 -1.066,-0.486 -1.74,-0.486 -0.407,0 -0.862,0.086 -1.363,0.26" /><path
         inkscape:connector-curvature="0"
         id="path903"
         style="fill:#231f20;fill-opacity:1;fill-rule:nonzero;stroke:none"
         d="m 495.744,-27.177 v 17.235 h 11.625 v -2.032 h -9.344 v -5.343 h 8.094 v -2.032 h -8.094 v -7.828 z" /><path
         inkscape:connector-curvature="0"
         id="path905"
         style="fill:#231f20;fill-opacity:1;fill-rule:nonzero;stroke:none"
         d="m 510.034,-27.177 v 12.485 h 1.891 v -1.895 c 0.487,0.886 0.936,1.471 1.349,1.752 0.413,0.283 0.866,0.424 1.362,0.424 0.715,0 1.441,-0.228 2.179,-0.682 l -0.74,-1.957 c -0.515,0.301 -1.032,0.451 -1.549,0.451 -0.461,0 -0.875,-0.138 -1.243,-0.417 -0.367,-0.278 -0.63,-0.664 -0.786,-1.158 -0.236,-0.752 -0.353,-1.575 -0.353,-2.468 v -6.535 z" /><path
         inkscape:connector-curvature="0"
         id="path907"
         style="fill:#231f20;fill-opacity:1;fill-rule:nonzero;stroke:none"
         d="m 519.655,-19.739 h 6.969 c -0.094,1.052 -0.36,1.842 -0.799,2.368 -0.674,0.817 -1.548,1.225 -2.621,1.225 -0.972,0 -1.788,-0.326 -2.45,-0.978 -0.662,-0.651 -1.028,-1.523 -1.099,-2.615 m 6.946,-3.407 2.187,-0.281 c -0.345,-1.277 -0.983,-2.268 -1.915,-2.973 -0.932,-0.705 -2.122,-1.058 -3.571,-1.058 -1.824,0 -3.272,0.562 -4.34,1.687 -1.069,1.124 -1.604,2.701 -1.604,4.731 0,2.1 0.54,3.729 1.621,4.889 1.081,1.16 2.483,1.74 4.206,1.74 1.668,0 3.031,-0.568 4.087,-1.704 1.057,-1.136 1.586,-2.735 1.586,-4.794 0,-0.126 -0.004,-0.315 -0.011,-0.565 h -9.317 c 0.078,-1.373 0.467,-2.425 1.164,-3.155 0.699,-0.729 1.57,-1.095 2.613,-1.095 0.776,0 1.438,0.205 1.988,0.616 0.549,0.41 0.983,1.064 1.306,1.962" /><path
         inkscape:connector-curvature="0"
         id="path909"
         style="fill:#231f20;fill-opacity:1;fill-rule:nonzero;stroke:none"
         d="m 533.035,-19.739 h 6.969 c -0.095,1.052 -0.36,1.842 -0.799,2.368 -0.674,0.817 -1.548,1.225 -2.621,1.225 -0.972,0 -1.788,-0.326 -2.45,-0.978 -0.662,-0.651 -1.029,-1.523 -1.099,-2.615 m 6.945,-3.407 2.188,-0.281 c -0.345,-1.277 -0.983,-2.268 -1.915,-2.973 -0.932,-0.705 -2.122,-1.058 -3.57,-1.058 -1.826,0 -3.273,0.562 -4.341,1.687 -1.07,1.124 -1.604,2.701 -1.604,4.731 0,2.1 0.54,3.729 1.621,4.889 1.081,1.16 2.483,1.74 4.205,1.74 1.668,0 3.031,-0.568 4.088,-1.704 1.058,-1.136 1.586,-2.735 1.586,-4.794 0,-0.126 -0.004,-0.315 -0.011,-0.565 h -9.317 c 0.078,-1.373 0.467,-2.425 1.165,-3.155 0.697,-0.729 1.569,-1.095 2.612,-1.095 0.776,0 1.439,0.205 1.988,0.616 0.549,0.41 0.984,1.064 1.305,1.962" /><path
         inkscape:connector-curvature="0"
         id="path911"
         style="fill:#231f20;fill-opacity:1;fill-rule:nonzero;stroke:none"
         d="m 544.338,-21.646 2.156,0.188 c 0.102,-0.864 0.338,-1.574 0.709,-2.128 0.371,-0.554 0.948,-1.002 1.73,-1.344 0.781,-0.341 1.661,-0.512 2.637,-0.512 0.868,0 1.634,0.129 2.298,0.388 0.664,0.26 1.158,0.616 1.484,1.068 0.324,0.451 0.486,0.944 0.486,1.476 0,0.541 -0.156,1.013 -0.468,1.417 -0.311,0.404 -0.828,0.742 -1.549,1.017 -0.462,0.18 -1.484,0.461 -3.066,0.842 -1.583,0.38 -2.692,0.739 -3.328,1.077 -0.824,0.431 -1.438,0.967 -1.842,1.607 -0.404,0.639 -0.606,1.356 -0.606,2.149 0,0.871 0.247,1.685 0.741,2.442 0.493,0.757 1.215,1.332 2.163,1.725 0.948,0.392 2.003,0.588 3.163,0.588 1.278,0 2.404,-0.205 3.381,-0.616 0.976,-0.411 1.726,-1.015 2.252,-1.813 0.525,-0.798 0.807,-1.701 0.846,-2.711 l -2.187,-0.172 c -0.118,1.087 -0.515,1.908 -1.192,2.464 -0.678,0.556 -1.68,0.833 -3.003,0.833 -1.38,0 -2.384,-0.253 -3.015,-0.759 -0.631,-0.507 -0.946,-1.116 -0.946,-1.83 0,-0.62 0.223,-1.13 0.67,-1.53 0.438,-0.401 1.585,-0.811 3.437,-1.23 1.853,-0.42 3.124,-0.786 3.814,-1.099 1.002,-0.462 1.743,-1.048 2.221,-1.757 0.478,-0.709 0.717,-1.526 0.717,-2.449 0,-0.917 -0.263,-1.781 -0.787,-2.591 -0.525,-0.812 -1.277,-1.442 -2.26,-1.892 -0.982,-0.45 -2.089,-0.676 -3.317,-0.676 -1.558,0 -2.864,0.228 -3.916,0.682 -1.053,0.454 -1.879,1.138 -2.478,2.051 -0.598,0.912 -0.914,1.944 -0.945,3.095" /><path
         inkscape:connector-curvature="0"
         id="path913"
         style="fill:#231f20;fill-opacity:1;fill-rule:nonzero;stroke:none"
         d="m 566.063,-27.177 -6.666,17.235 h 2.472 l 4.478,-12.516 c 0.36,-1.003 0.662,-1.943 0.905,-2.82 0.267,0.939 0.576,1.88 0.929,2.82 l 4.657,12.516 h 2.331 l -6.748,-17.235 z" /><path
         inkscape:connector-curvature="0"
         id="path915"
         style="fill:#231f20;fill-opacity:1;fill-rule:nonzero;stroke:none"
         d="m 585.26,-20.427 v 2.031 h 7.297 v -6.388 c -1.12,-0.893 -2.277,-1.565 -3.468,-2.014 -1.191,-0.451 -2.413,-0.676 -3.666,-0.676 -1.694,0 -3.231,0.363 -4.613,1.088 -1.384,0.725 -2.428,1.774 -3.133,3.146 -0.705,1.372 -1.058,2.905 -1.058,4.598 0,1.678 0.351,3.244 1.052,4.698 0.701,1.455 1.71,2.535 3.026,3.24 1.317,0.706 2.833,1.058 4.549,1.058 1.245,0 2.372,-0.202 3.379,-0.606 1.007,-0.404 1.796,-0.968 2.368,-1.689 0.572,-0.722 1.007,-1.664 1.305,-2.827 l -2.058,-0.563 c -0.259,0.878 -0.58,1.568 -0.965,2.071 -0.383,0.503 -0.932,0.906 -1.645,1.208 -0.714,0.302 -1.506,0.453 -2.376,0.453 -1.042,0 -1.944,-0.158 -2.704,-0.476 -0.761,-0.317 -1.375,-0.735 -1.841,-1.252 -0.466,-0.517 -0.829,-1.085 -1.088,-1.704 -0.438,-1.066 -0.658,-2.222 -0.658,-3.468 0,-1.536 0.265,-2.821 0.794,-3.855 0.529,-1.036 1.299,-1.803 2.31,-2.305 1.011,-0.501 2.085,-0.752 3.222,-0.752 0.988,0 1.952,0.189 2.894,0.568 0.94,0.38 1.653,0.784 2.139,1.215 v 3.201 z" /><path
         inkscape:connector-curvature="0"
         id="path917"
         style="fill:#231f20;fill-opacity:1;fill-rule:nonzero;stroke:none"
         d="m 596.239,-24.771 h 2.406 v -2.406 h -2.406 z" /><path
         inkscape:connector-curvature="0"
         id="path919"
         style="fill:#231f20;fill-opacity:1;fill-rule:nonzero;stroke:none"
         d="m 603.705,-20.937 c 0,-1.599 0.349,-2.796 1.046,-3.593 0.697,-0.795 1.574,-1.194 2.632,-1.194 1.05,0 1.923,0.401 2.62,1.2 0.697,0.8 1.046,2.019 1.046,3.658 0,1.545 -0.351,2.715 -1.052,3.512 -0.701,0.794 -1.572,1.193 -2.614,1.193 -1.058,0 -1.935,-0.397 -2.632,-1.188 -0.697,-0.793 -1.046,-1.988 -1.046,-3.588 m -2.172,0.002 c 0,2.312 0.642,4.024 1.927,5.137 1.072,0.924 2.38,1.387 3.923,1.387 1.715,0 3.116,-0.563 4.205,-1.687 1.089,-1.125 1.633,-2.678 1.633,-4.661 0,-1.605 -0.242,-2.869 -0.723,-3.79 -0.481,-0.921 -1.183,-1.636 -2.102,-2.145 -0.92,-0.509 -1.924,-0.764 -3.013,-0.764 -1.746,0 -3.158,0.561 -4.235,1.681 -1.077,1.12 -1.615,2.735 -1.615,4.842" /><path
         inkscape:connector-curvature="0"
         id="path921"
         style="fill:#231f20;fill-opacity:1;fill-rule:nonzero;stroke:none"
         d="m 615.679,-27.177 v 12.485 h 1.89 v -1.895 c 0.488,0.886 0.937,1.471 1.35,1.752 0.412,0.283 0.865,0.424 1.361,0.424 0.715,0 1.442,-0.228 2.18,-0.682 l -0.74,-1.957 c -0.516,0.301 -1.032,0.451 -1.549,0.451 -0.461,0 -0.875,-0.138 -1.243,-0.417 -0.367,-0.278 -0.63,-0.664 -0.786,-1.158 -0.237,-0.752 -0.354,-1.575 -0.354,-2.468 v -6.535 z" /><path
         inkscape:connector-curvature="0"
         id="path923"
         style="fill:#231f20;fill-opacity:1;fill-rule:nonzero;stroke:none"
         d="m 625.077,-20.712 c 0,-1.639 0.325,-2.834 0.975,-3.586 0.649,-0.753 1.463,-1.129 2.441,-1.129 0.971,0 1.784,0.374 2.442,1.123 0.658,0.748 0.986,1.922 0.986,3.522 0,1.528 -0.338,2.68 -1.016,3.457 -0.676,0.775 -1.492,1.164 -2.447,1.164 -0.939,0 -1.737,-0.383 -2.395,-1.147 -0.657,-0.764 -0.986,-1.899 -0.986,-3.404 m -1.75,-7.496 2.063,-0.313 c 0.086,-0.632 0.325,-1.093 0.715,-1.382 0.525,-0.391 1.241,-0.586 2.148,-0.586 0.977,0 1.732,0.196 2.265,0.588 0.531,0.392 0.891,0.941 1.079,1.647 0.109,0.432 0.16,1.337 0.152,2.718 -0.924,-1.094 -2.074,-1.641 -3.453,-1.641 -1.715,0 -3.042,0.619 -3.982,1.858 -0.939,1.238 -1.409,2.722 -1.409,4.455 0,1.191 0.216,2.29 0.647,3.297 0.43,1.006 1.055,1.785 1.874,2.333 0.818,0.548 1.78,0.823 2.884,0.823 1.472,0 2.687,-0.594 3.642,-1.781 v 1.5 h 1.953 v -10.789 c 0,-1.944 -0.197,-3.321 -0.593,-4.131 -0.396,-0.811 -1.023,-1.451 -1.88,-1.922 -0.859,-0.47 -1.914,-0.705 -3.168,-0.705 -1.489,0 -2.692,0.335 -3.609,1.005 -0.917,0.67 -1.359,1.678 -1.328,3.026" /></g><g
       id="g1071"><path
         inkscape:connector-curvature="0"
         id="path925"
         style="fill:#231f20;fill-opacity:1;fill-rule:evenodd;stroke:none"
         d="m 473.088,364.813 c 6.512,1.49 12.793,3.027 18.868,4.606 0.732,-14.994 9.54,-23.642 10.274,-38.636 -17.439,2.77 -44.425,13.861 -60.626,6.846 -34.852,-15.092 -56.547,-51.872 -89.962,-69.918 -19.082,-10.305 -42.267,-10.334 -52.704,-4.738 -34.762,18.646 -21.599,71.039 7.722,45.809 -1.466,11.081 -2.933,22.165 -4.401,33.246 22.894,1.498 44.041,3.326 63.657,5.447 l -22.892,-10.329 h -27.868 l 24.935,-15.646 41.07,18.823 0.329,-3.328 c 0.357,-3.626 2.105,-6.606 5.096,-8.687 0.469,-0.325 0.942,-0.613 1.43,-0.864 2.906,-1.51 6.167,-1.34 8.896,0.468 2.303,1.525 3.683,3.847 3.906,6.493 -0.394,-0.184 -0.818,-0.285 -1.26,-0.285 -2.093,0 -3.789,2.251 -3.789,5.026 0,2.777 1.696,5.027 3.789,5.027 0.726,0 1.403,-0.269 1.979,-0.739 l 17.516,-0.911 -16.643,9.471 c 18.494,2.599 35.476,5.493 51.184,8.641 l -4.9,-7.508 10.9,6.006 c 0.29,-4.453 3.508,-7.961 7.436,-7.961 2.435,0 4.6,1.35 5.96,3.439 -1.97,0.188 -3.516,2.025 -3.516,4.261 0,2.362 1.723,4.278 3.849,4.278 0.201,0 0.399,-0.017 0.591,-0.05 -0.22,0.608 -0.498,1.184 -0.826,1.713 m 37.197,10.174 c 93.85,15.992 162.563,102.651 140.699,191.334 -31.943,-87.476 -91.709,-95.794 -178.853,-101.784 -65.806,6.145 -100.247,-3.775 -131.972,-23.646 40.275,39.942 81.965,61.492 125.587,57.936 -10.563,35.734 -31.504,71.693 -45.534,110.519 -74.805,32.759 -148.63,-21.512 -222.947,-32.268 12.06,-7.823 24.121,-15.646 36.18,-23.469 l 34.235,-14.2 -29.048,3.036 c 14.727,-35.258 13.314,-69.05 5.569,-102.265 -90.229,-30.042 -168.899,-6.139 -235.66,73.338 5.022,-101.275 70.599,-161.766 203.392,-176.99 -3.811,-9.086 -6.865,-18.596 -9.346,-28.442 -0.655,-7.882 0.116,-16.622 1.352,-24.886 3.642,10.853 11.121,19.974 23.863,24.17 -23.952,-28.443 -20.203,-53.979 6.42,-77.54 -19.601,6.127 -31.932,20.795 -38.265,42.51 -7.336,-55.923 -4.2,-118.306 -17.271,-173.43 42.048,19.885 92.895,12.388 126.142,59.65 8.963,-8.963 19.055,-17.207 29.643,-25.136 22.152,-15.601 50.215,-21.461 81.47,-22.068 -14.464,-3.564 -28.501,-5.784 -41.922,-6.089 34.027,-24.312 65.379,-50.322 74.551,-90.45 23.881,11.23 40.406,26.421 53.007,43.725 -9.28,-5.701 -20.511,-8.494 -33.053,-6.876 10.85,2.388 22.164,11.488 31.78,20.842 -10.939,-3.377 -22.711,-2.626 -33.554,5.273 37.075,-2.851 55.625,15.096 59.222,50.465 1.983,-5.982 2.933,-12.16 2.965,-18.294 10.813,25.641 20.27,52.013 35.998,75.009 -1.733,6.146 -4.034,11.883 -6.982,17.15 -9.47,16.907 -13.263,33.843 -11.906,53.173 0.481,6.883 0.674,13.863 0.797,21.107 -10.085,22.308 -7.495,35.528 -24.447,52.803 -2.281,28.358 -9.832,17.436 -12.112,45.793" /></g><path
       style="fill:#00aa44;stroke-width:1.03651"
       d="M 596.61058,852.79152 C 586.58276,816.65337 561.39718,785.51915 512.91944,749.3332 l -12.07466,-9.01306 8.44686,-0.69714 c 15.91201,-1.31326 42.63554,-6.07993 44.67302,-7.96832 0.5748,-0.53274 -2.01661,-0.91263 -6.22543,-0.91263 -17.8183,0 -46.13908,-4.76639 -64.16938,-10.79971 -23.04277,-7.71058 -44.68125,-21.69589 -68.33959,-44.16901 -4.18165,-3.97215 -8.0782,-7.2221 -8.65903,-7.2221 -0.58081,0 -1.86575,1.23582 -2.85543,2.74627 -3.53326,5.39243 -18.78595,20.48627 -26.55417,26.27763 -10.02064,7.47057 -25.29903,15.32027 -39.25822,20.17001 -5.98586,2.07963 -23.0106,6.8142 -37.83274,10.52127 -30.36039,7.59323 -41.16507,10.71431 -52.21611,15.08335 -4.20532,1.66258 -7.82466,2.84425 -8.04299,2.62592 -0.21833,-0.21832 0.54755,-4.9873 1.70193,-10.59772 5.90703,-28.70862 9.06664,-59.48003 12.92826,-125.908 2.36696,-40.71653 4.79564,-72.64219 6.45136,-84.80472 l 0.60918,-4.4749 2.78007,7.14537 c 7.85317,20.18434 21.11306,35.16348 37.86133,42.77034 11.76843,5.34507 12.00166,5.08226 3.50515,-3.94957 -13.64379,-14.50345 -19.92343,-26.03175 -22.0062,-40.39947 -2.08657,-14.3939 2.62097,-30.02125 13.97931,-46.40639 3.42162,-4.93589 6.02808,-9.1674 5.79214,-9.40334 -0.23593,-0.23594 -3.6501,1.18564 -7.58703,3.15905 -8.65542,4.3386 -15.77763,11.33597 -20.46192,20.10326 l -3.48623,6.52494 -0.66707,-7.06396 c -1.81014,-19.16843 0.22205,-31.46246 8.74884,-52.92744 1.67329,-4.21223 2.77375,-8.09317 2.44549,-8.6243 -0.32827,-0.53114 -1.79213,-0.96571 -3.25306,-0.96571 -3.53297,0 -21.93602,-2.6965 -36.09069,-5.28818 C 114.90354,401.39944 39.858016,340.53747 18.252805,242.54417 15.422199,229.70558 12.438163,208.82681 12.438163,201.86015 v -4.29987 l 5.343361,6.16685 c 9.5762,11.05204 34.304531,35.05575 45.802402,44.46022 42.608344,34.85073 90.628094,55.63892 140.398394,60.77978 15.22433,1.57253 50.04449,0.70771 64.99294,-1.61424 13.95379,-2.16744 33.98185,-6.69416 47.16137,-10.65936 l 9.84688,-2.96253 1.78047,-8.23181 c 4.03816,-18.66995 5.38239,-31.83605 5.39093,-52.8019 0.005,-11.92471 -0.55686,-24.25249 -1.32242,-29.02238 -1.98595,-12.37365 -6.18727,-28.94122 -9.56074,-37.70198 -1.64488,-4.27171 -2.82314,-7.9343 -2.61834,-8.13909 0.42758,-0.42759 31.96216,2.60456 35.87074,3.44908 6.10037,1.31809 -0.68767,-2.03861 -21.24853,-10.50741 -20.31697,-8.36836 -23.3319,-9.9772 -45.26467,-24.15433 -12.92385,-8.35385 -23.36468,-15.32203 -23.20186,-15.48484 0.1628,-0.16281 6.95635,-1.66632 15.09675,-3.34113 20.26428,-4.16917 34.11012,-8.243349 82.91041,-24.39661 48.44185,-16.034616 58.74636,-19.083965 78.42816,-23.208774 21.33553,-4.471385 32.19455,-5.659177 51.13604,-5.593409 22.78869,0.07912 37.01906,2.53582 57.16896,9.869506 l 8.97109,3.265086 6.47568,16.146274 c 3.56163,8.880451 12.9741,30.605637 20.91661,48.278197 7.9425,17.67255 16.92479,38.19552 19.96065,45.60659 5.50269,13.43303 12.96166,34.07442 12.96166,35.86909 0,0.5286 -2.3986,0.66996 -5.4417,0.32071 -6.41169,-0.73586 -26.93091,1.0439 -38.04077,3.29952 -28.923,5.87219 -62.14397,22.73332 -92.05232,46.72064 -13.3798,10.73099 -31.67443,27.30324 -30.94553,28.03214 0.27082,0.27082 5.08142,-2.10592 10.6902,-5.28164 25.79539,-14.60547 54.39457,-23.44153 85.74635,-26.49235 14.29267,-1.39082 52.34757,-1.41184 67.87524,-0.0375 23.34443,2.06618 88.67274,-4.98413 120.43322,-12.99731 53.55107,-13.51097 88.12481,-39.26576 113.35836,-84.4433 4.53131,-8.11278 11.61982,-23.43586 15.59255,-33.70615 0.68942,-1.78226 0.92285,-1.56418 1.66426,1.55478 0.4743,1.99528 1.57496,8.89903 2.44591,15.34166 13.93819,103.10471 -65.17277,205.45222 -178.43859,230.84973 -6.73812,1.51088 -12.46811,2.96348 -12.73329,3.22799 -0.26519,0.26451 0.2658,4.87754 1.17997,10.25119 1.24842,7.33836 2.98348,12.56588 6.9707,21.00173 4.20452,8.89562 5.54395,13.05078 6.44037,19.97923 1.29603,10.01709 0.91319,9.13579 7.45234,17.15525 6.5393,8.01963 12.04981,19.70901 16.80316,35.64433 2.12563,7.12603 5.19648,16.32182 6.8241,20.43509 l 2.95931,7.47865 -0.62291,24.65327 c -0.89221,35.3118 0.76471,43.55042 14.6516,72.85113 11.38814,24.02848 11.1552,21.33149 3.00363,34.77532 -8.7208,14.38262 -18.30406,34.35019 -30.02549,62.5607 -10.12196,24.36102 -9.23679,23.64404 -11.91827,9.65367 -0.68611,-3.57971 -1.58949,-6.71995 -2.00754,-6.97831 -0.41803,-0.25836 -1.54329,3.8113 -2.50056,9.04368 -2.30914,12.62148 -5.06733,20.63955 -9.90756,28.80124 -11.16688,18.82981 -29.29343,28.15367 -55.19717,28.3921 -6.69433,0.0616 -12.17489,0.39686 -12.17903,0.74499 -0.004,0.34815 2.78411,2.1209 6.1961,3.93947 10.43861,5.56372 23.72933,7.34028 34.73867,4.64349 1.42029,-0.34791 0.76755,0.67226 -2.07303,3.23993 -11.53383,10.42577 -25.86626,19.54302 -34.20494,21.75869 -3.0857,0.8199 -3.07377,0.83312 1.55477,1.72278 8.02306,1.54213 23.53592,-1.08221 34.46407,-5.83036 3.35663,-1.45841 1.85587,0.98935 -6.34046,10.34146 -8.03396,9.16685 -19.31981,19.29868 -29.89015,26.83379 -5.50184,3.92204 -26.19654,16.15716 -27.32844,16.15716 -0.34322,0 -1.43297,-2.9152 -2.42165,-6.47821 z M 439.93341,533.26885 c 27.01848,-4.71163 44.46799,-15.87443 85.0607,-54.415 27.71608,-26.31491 41.90683,-37.39541 58.46734,-45.6528 16.80807,-8.38083 26.431,-7.96277 71.5891,3.11012 7.11173,1.74381 13.44796,3.17057 14.08051,3.17057 2.17637,0 -0.41114,-11.97653 -5.64003,-26.1054 -3.93126,-10.62258 -7.37796,-22.90009 -7.37796,-26.28106 0,-0.0991 -5.65818,1.19451 -12.57375,2.87454 -9.71485,2.36008 -13.12456,3.64894 -14.99627,5.66856 -3.65767,3.94669 -4.04627,6.35164 -1.56796,9.70374 l 2.17226,2.93813 -2.29547,1.60782 c -2.85997,2.00319 -4.26087,2.01417 -8.03409,0.063 -1.76695,-0.91373 -3.52477,-3.03094 -4.30279,-5.18257 -1.56197,-4.31951 -2.21665,-4.41155 -7.63632,-1.07349 -5.59945,3.44881 -6.26816,3.26273 -3.6278,-1.00947 1.59642,-2.58306 1.84464,-3.62431 0.86192,-3.6157 -0.7591,0.006 -11.64166,1.82359 -24.18347,4.03764 -12.54182,2.21405 -27.00118,4.61117 -32.13192,5.32693 -5.13074,0.71575 -9.93383,1.61175 -10.67354,1.99109 -0.82937,0.42532 2.46426,2.79991 8.59203,6.19459 5.46532,3.02768 9.77973,5.66208 9.5876,5.85422 -0.19214,0.19215 -5.92428,-0.10607 -12.73809,-0.6627 -14.11807,-1.15338 -14.98002,-0.78041 -14.98002,6.48181 0,3.26283 0.53171,4.28653 3.0089,5.79299 2.67747,1.62827 2.87272,2.08425 1.77264,4.13975 -5.67793,10.60932 -21.36886,5.24831 -23.13292,-7.90367 -0.31834,-2.37349 -0.90471,-4.31544 -1.30302,-4.31544 -0.3983,0 -10.48176,4.4824 -22.40769,9.96088 -11.92592,5.47849 -24.01907,10.99994 -26.87366,12.26989 l -5.19015,2.309 -15.49934,-9.67861 -15.49935,-9.6786 h 17.31375 17.31373 l 15.69447,-6.99646 c 8.63195,-3.84806 14.9558,-7.14269 14.05301,-7.3214 -0.90279,-0.1787 -14.60874,0.85785 -30.45768,2.30346 -15.84893,1.4456 -34.31215,2.94387 -41.02938,3.32949 -6.71722,0.38561 -12.36918,0.98157 -12.55991,1.32434 -0.28947,0.52023 3.15163,27.87641 4.92745,39.1725 l 0.52001,3.30782 -6.48924,-3.56695 c -15.42612,-8.47925 -27.61913,-2.14538 -30.81684,16.00835 -3.19173,18.11974 8.51656,40.87828 25.82347,50.1956 10.56298,5.68667 26.31473,7.26348 43.17977,4.32247 z"
       id="path321"
       transform="matrix(0.75000002,0,0,-0.75000002,0,660.00002)" /><path
       style="fill:#00aa44;stroke-width:1.03651"
       d="m 598.61075,857.04511 c -0.28135,-0.77175 -1.69883,-5.13463 -3.14997,-9.69529 -10.32085,-32.43656 -36.25177,-63.80003 -79.78209,-96.49652 -6.56321,-4.92975 -11.93311,-9.37257 -11.93311,-9.87291 0,-0.50035 1.98233,-0.91247 4.40518,-0.91584 9.41696,-0.0131 42.12946,-5.66544 45.01988,-7.77898 1.52989,-1.11868 0.38544,-1.41748 -7.48441,-1.9541 -24.16488,-1.64772 -50.615,-6.60468 -65.85629,-12.34199 -20.47185,-7.70625 -40.03895,-20.58018 -63.08014,-41.50277 -4.80646,-4.36451 -9.11226,-7.93548 -9.56845,-7.93548 -0.4562,0 -6.78513,5.9915 -14.06429,13.31444 -14.53236,14.61976 -20.82464,19.29645 -36.51311,27.1381 -13.72606,6.86077 -25.41938,10.6591 -61.82809,20.08354 -16.59413,4.29541 -35.46214,9.67354 -41.9289,11.9514 -6.46677,2.27787 -11.93161,3.96772 -12.1441,3.75524 -0.21248,-0.21248 0.79964,-6.84271 2.24918,-14.73385 5.3233,-28.97975 8.13194,-57.31804 12.00319,-121.10839 2.04134,-33.63715 6.06107,-85.67277 6.66484,-86.27654 0.1569,-0.1569 1.5888,3.0372 3.182,7.098 6.66799,16.99557 20.78664,32.66836 36.22221,40.20943 13.67134,6.67916 14.15266,5.82916 3.45157,-6.0954 -13.62661,-15.18456 -19.31811,-26.90516 -20.20455,-41.60748 -0.85729,-14.21887 2.88425,-25.60244 14.22654,-43.28408 3.00149,-4.67905 5.17548,-8.78914 4.8311,-9.13353 -0.34439,-0.34438 -3.62485,0.8501 -7.28993,2.65441 -7.67062,3.77623 -16.73367,12.32318 -20.40427,19.24234 -1.38043,2.60212 -2.91621,4.73113 -3.41287,4.73113 -0.49665,0 -0.70147,-7.34629 -0.45514,-16.32509 l 0.44786,-16.32509 5.57167,-16.30297 c 3.06442,-8.96663 5.33664,-16.53802 5.04936,-16.82529 -0.28728,-0.28728 -5.989,-1.23894 -12.67049,-2.11481 C 166.45085,415.00099 90.007778,376.11835 50.087963,316.65489 30.84816,287.99581 17.227079,248.8339 14.036507,213.00353 c -0.355347,-3.99057 -0.884615,-8.78821 -1.176151,-10.66141 -0.478532,-3.07469 1.062362,-1.77491 15.848959,13.36888 33.935022,34.75479 54.996074,50.86231 88.416715,67.62122 26.39994,13.23834 51.39839,21.21204 78.77503,25.1267 17.37666,2.48473 60.51902,1.59114 78.77503,-1.63164 12.30333,-2.17193 32.98951,-7.06385 45.77198,-10.82427 l 5.8662,-1.72576 1.63157,-7.46843 c 5.12047,-23.43877 7.09194,-54.35305 4.89192,-76.70937 -1.20526,-12.2476 -6.33475,-34.63861 -10.36207,-45.23202 -1.1791,-3.10147 -1.92869,-5.85416 -1.66577,-6.11708 0.42271,-0.42272 19.86267,1.10137 32.6412,2.55906 4.31991,0.49279 4.51929,0.4145 2.70035,-1.06025 -1.08017,-0.87577 -8.77628,-4.46031 -17.10247,-7.96564 -21.23895,-8.94161 -33.13973,-15.33154 -53.93517,-28.95963 l -18.06639,-11.83963 6.14649,-1.39654 c 26.18696,-5.94996 45.95553,-11.65057 90.62232,-26.132533 76.42722,-24.779393 92.12628,-28.271484 127.49117,-28.359039 26.13169,-0.0647 34.74098,1.185739 54.68344,7.942356 l 13.08693,4.433928 2.0423,5.142171 c 3.60102,9.066793 22.98647,54.139697 33.86305,78.734627 12.71758,28.75795 23.81544,57.10461 23.81544,60.83049 0,0.46313 -3.98305,0.84207 -8.85121,0.84207 -18.0574,0 -36.58981,3.0399 -53.90736,8.84249 -13.13727,4.4019 -36.20336,16.19169 -51.31098,26.2266 -18.02884,11.97526 -53.23925,41.5029 -51.54651,43.22717 0.40941,0.41702 7.63909,-2.75308 16.06596,-7.04468 24.90402,-12.683 43.29804,-18.6129 70.25682,-22.64954 12.08943,-1.8102 18.53615,-1.99566 62.70907,-1.80408 50.85001,0.22056 59.05108,-0.21125 92.76796,-4.88452 49.27444,-6.82961 78.90523,-16.55408 105.72438,-34.69748 26.55486,-17.9646 48.69748,-47.19265 63.77101,-84.17709 1.33599,-3.27797 2.75265,-5.95995 3.14813,-5.95995 1.95332,0 3.56103,18.47875 3.51701,40.42402 -0.0405,20.20918 -0.3597,24.774 -2.39157,34.20495 -16.33156,75.80263 -75.34786,139.06634 -153.55695,164.60841 -5.41578,1.76872 -13.81154,4.19579 -18.65724,5.39347 -4.8457,1.1977 -10.6232,2.65259 -12.83888,3.23309 l -4.02851,1.05546 0.66236,6.91839 c 0.80872,8.44713 2.24331,13.25404 7.90312,26.48109 2.60283,6.08285 5.00121,13.86096 5.91276,19.1755 1.38634,8.08275 2.03178,9.58842 6.72096,15.67876 7.18425,9.33096 12.03458,19.97299 19.85998,43.57446 l 6.71514,20.2529 0.4462,31.05452 c 0.5554,38.65582 -0.51052,34.24168 18.33385,75.92359 2.39395,5.2952 4.39058,10.96164 4.43693,12.5921 0.0525,1.84844 -2.33716,7.19889 -6.34771,14.21219 -8.57588,14.99674 -16.05829,30.61046 -27.24576,56.85431 -5.10342,11.97174 -9.66816,22.16648 -10.14389,22.65499 -0.47572,0.48851 -1.4138,-1.84365 -2.08463,-5.18257 -1.94091,-9.66062 -2.25729,-10.73508 -3.16102,-10.73508 -0.4694,0 -1.62086,3.61484 -2.55882,8.03298 -4.15053,19.55065 -9.04407,30.26757 -18.38643,40.26663 -10.88367,11.64869 -23.9163,16.71234 -45.60908,17.72079 -7.26855,0.33789 -13.21554,1.00433 -13.21554,1.48096 0,0.47663 2.44876,2.26755 5.44169,3.97983 7.29864,4.17559 18.78363,6.65661 27.82106,6.01 3.91066,-0.27981 6.87219,-0.12347 6.58116,0.34741 -0.29102,0.47089 -5.14527,4.33345 -10.78721,8.58347 -8.85109,6.66743 -17.69623,11.74549 -25.42891,14.59893 -1.95952,0.72308 -1.93114,0.82161 0.51826,1.79951 5.30885,2.11949 25.62562,-0.67916 35.70636,-4.91858 1.80047,-0.75718 1.74494,-0.46316 -0.51172,2.70916 -3.95166,5.55509 -19.34253,20.66521 -28.13476,27.62153 -7.15569,5.66151 -27.96109,18.92624 -32.29207,20.58818 -0.98652,0.37857 -1.91433,0.0634 -2.21124,-0.75095 z M 449.29765,531.76685 c 22.45432,-6.13331 37.48796,-16.63197 78.82484,-55.04695 20.95786,-19.47645 35.11547,-31.03959 46.25661,-37.77983 22.05707,-13.34424 31.42521,-13.78933 74.58448,-3.54355 9.46471,2.24687 18.26326,4.08522 19.55232,4.08522 2.20783,0 2.30127,-0.28551 1.61133,-4.92344 -0.40283,-2.70789 -3.26503,-12.60401 -6.36044,-21.99138 -3.09541,-9.38738 -5.91186,-18.84294 -6.25876,-21.01237 -0.34691,-2.16944 -0.96565,-4.15142 -1.37499,-4.40441 -1.48663,-0.91878 -22.86861,4.88913 -26.15643,7.1048 -4.57218,3.08119 -5.90862,7.06129 -3.65313,10.87951 2.071,3.50595 0.84599,5.32491 -3.58614,5.32491 -3.20244,0 -6.60623,-2.84838 -8.10054,-6.77872 -1.18167,-3.10803 -3.52919,-3.22459 -8.15428,-0.40491 -2.77369,1.69099 -3.36886,1.7984 -2.85041,0.51439 0.36041,-0.89258 0.9384,-2.32251 1.28444,-3.17764 0.4432,-1.09525 -0.0301,-1.55477 -1.60126,-1.55477 -2.66842,0 -65.70487,10.43816 -66.28985,10.97689 -0.93269,0.85895 2.68976,3.84005 8.85722,7.28909 3.61847,2.02358 6.57906,3.90349 6.57906,4.1776 0,0.27411 -4.89023,0.1708 -10.86718,-0.22958 -12.76351,-0.85497 -14.00915,-0.30045 -14.00915,6.23636 0,3.28016 0.62586,4.94469 2.5328,6.73616 2.33958,2.19793 2.41479,2.55952 0.98598,4.74016 -5.59377,8.53719 -18.27644,3.48666 -21.28914,-8.47783 -1.05334,-4.18324 -1.42066,-4.59026 -3.63984,-4.03328 -1.35755,0.34072 -13.68729,5.73772 -27.39941,11.99333 -19.39459,8.84801 -25.34669,11.15145 -26.80239,10.37237 -1.0292,-0.5508 -7.80352,-4.7173 -15.05405,-9.25887 l -13.1828,-8.25742 18.49687,-0.32566 18.49686,-0.32565 13.47468,-6.68301 c 12.05505,-5.97892 13.12643,-6.72245 10.16928,-7.05742 -2.7537,-0.31192 -24.37075,1.30123 -74.75093,5.57819 l -7.57341,0.64294 0.66956,5.83267 c 0.36825,3.20798 1.56073,12.34997 2.64996,20.31554 1.08923,7.96558 1.98041,14.8126 1.98041,15.21562 0,0.403 -1.98233,-0.37365 -4.40518,-1.72589 -10.46727,-5.84203 -19.53359,-5.35359 -25.83644,1.39189 -11.83999,12.67147 -8.44711,38.28225 7.33484,55.36634 11.14057,12.05975 21.05462,15.52457 42.60054,14.88832 10.09965,-0.29825 16.29144,-1.04104 22.25407,-2.66972 z"
       id="path471"
       transform="matrix(0.75000002,0,0,-0.75000002,0,660.00002)" /></g></svg>
